<?xml version="1.0" standalone="no"?>
<!DOCTYPE svg PUBLIC "-//W3C//DTD SVG 20010904//EN"
 "http://www.w3.org/TR/2001/REC-SVG-20010904/DTD/svg10.dtd">
<svg version="1.0" xmlns="http://www.w3.org/2000/svg"
 width="300.000000pt" height="300.000000pt" viewBox="0 0 300.000000 300.000000"
 preserveAspectRatio="xMidYMid meet">

<g transform="translate(0.000000,300.000000) scale(0.100000,-0.100000)"
fill="#000000" stroke="none">
<path d="M1510 2683 c-83 -6 -87 -8 -82 -48 5 -39 16 -45 32 -15 18 34 47 25
54 -17 11 -71 7 -133 -9 -133 -9 0 -12 -6 -8 -16 5 -13 16 -15 61 -11 65 7 73
13 46 35 -17 14 -23 32 -28 95 -6 72 -5 77 12 77 11 0 25 -7 32 -15 17 -20 44
-20 36 1 -3 9 -6 24 -6 35 0 20 -16 21 -140 12z"/>
<path d="M1210 2651 c-14 -5 -50 -20 -79 -36 -51 -25 -53 -28 -37 -41 11 -7
22 -15 25 -16 4 -2 20 -33 35 -70 21 -50 26 -71 18 -81 -6 -7 -7 -18 -3 -25 6
-10 18 -8 54 8 45 20 64 50 32 50 -14 0 -35 29 -35 49 0 19 21 12 60 -19 42
-33 58 -36 84 -17 15 11 13 16 -29 45 -36 25 -45 37 -39 50 29 65 -19 123 -86
103z m36 -68 c5 -19 2 -30 -11 -40 -26 -18 -31 -17 -45 16 -14 36 -7 51 25 51
18 0 26 -7 31 -27z"/>
<path d="M1822 2615 c-22 -10 -39 -28 -52 -57 -25 -55 -25 -95 0 -135 22 -37
83 -58 136 -49 26 5 31 10 27 26 -4 15 -14 20 -42 20 -51 0 -75 20 -75 62 0
57 22 98 53 98 33 0 47 -9 55 -37 9 -27 32 -30 39 -5 2 9 8 24 11 33 5 12 -2
20 -26 32 -52 24 -90 28 -126 12z"/>
<path d="M2089 2503 c-1 -5 0 -17 0 -29 3 -30 -64 -140 -89 -147 -34 -9 -23
-23 62 -72 l82 -47 18 22 c25 31 22 43 -9 37 -27 -5 -83 16 -83 31 0 4 8 17
18 30 l18 23 28 -22 c28 -22 29 -22 43 -4 12 18 10 21 -22 37 -35 18 -35 19
-20 48 15 30 16 30 45 15 18 -9 30 -24 30 -35 0 -29 17 -33 34 -8 9 12 16 26
16 30 0 8 -149 98 -162 98 -5 0 -8 -3 -9 -7z"/>
<path d="M846 2479 c-13 -20 -12 -30 20 -118 19 -53 34 -104 34 -113 0 -29 19
-30 54 -2 36 29 38 44 5 44 -32 0 -34 28 -4 60 23 24 30 27 46 17 12 -7 17
-18 13 -29 -3 -11 0 -18 7 -18 18 0 80 50 74 59 -4 8 -219 121 -229 121 -3 0
-12 -10 -20 -21z m74 -64 c35 -18 35 -17 11 -39 -19 -17 -20 -17 -35 13 -25
47 -22 50 24 26z"/>
<path d="M2339 2298 c0 -2 -2 -12 -3 -23 -3 -26 -102 -120 -126 -120 -34 0
-34 -15 0 -50 40 -41 60 -45 60 -10 0 24 35 53 48 41 3 -4 -2 -30 -11 -58 -16
-51 -16 -53 6 -76 l22 -24 15 54 c14 47 19 53 45 56 41 5 75 39 75 74 0 39
-121 165 -131 136z m69 -90 c19 -19 14 -45 -10 -62 -21 -15 -24 -14 -42 4 -20
19 -20 20 4 45 27 28 31 30 48 13z"/>
<path d="M575 2250 c-8 -16 -15 -36 -15 -44 0 -7 30 -38 66 -68 36 -29 60 -54
53 -56 -8 -1 -49 1 -92 6 l-78 8 -20 -45 c-15 -34 -17 -46 -7 -52 7 -4 18 -3
25 3 10 8 31 -1 82 -31 38 -23 72 -49 75 -57 9 -23 21 -16 40 22 18 40 9 67
-16 47 -10 -8 -28 -3 -68 18 l-55 29 93 -6 c50 -3 92 -2 92 2 0 5 3 18 6 30 4
16 -8 30 -56 68 -34 27 -59 50 -57 53 3 2 30 -3 60 -12 38 -11 54 -21 53 -32
-3 -35 22 -21 42 24 l21 48 -27 3 c-72 7 -163 35 -173 53 -14 27 -26 24 -44
-11z"/>
<path d="M1311 2112 c22 -131 4 -273 -42 -330 -47 -59 -99 -71 -254 -58 l-90
7 58 -25 c152 -64 207 -141 207 -290 0 -39 -4 -87 -10 -105 -5 -19 -8 -36 -7
-37 11 -11 114 53 158 98 170 170 183 463 33 705 -25 40 -49 75 -53 77 -4 3
-4 -16 0 -42z"/>
<path d="M1602 2008 c-70 -142 -95 -243 -96 -388 -1 -122 0 -127 32 -192 39
-79 128 -168 219 -215 33 -18 63 -33 66 -33 2 0 -1 17 -9 38 -39 110 2 263
113 420 l45 63 -29 -8 c-15 -4 -60 -8 -99 -8 -91 0 -133 26 -172 105 -25 51
-27 64 -27 178 0 67 -1 122 -1 122 -1 0 -20 -37 -42 -82z"/>
<path d="M2512 2002 c-25 -14 -30 -20 -20 -30 7 -7 18 -12 25 -12 7 0 17 -8
22 -19 9 -16 2 -22 -64 -51 -55 -24 -78 -30 -88 -22 -7 6 -18 8 -24 4 -7 -5
-3 -24 13 -59 24 -56 42 -67 51 -32 4 12 31 33 74 55 38 18 70 34 73 34 11 0
15 -34 6 -51 -17 -30 -3 -41 31 -24 16 9 29 19 28 23 0 4 -21 51 -47 104 l-47
97 -33 -17z"/>
<path d="M1804 1970 c-35 -14 -64 -59 -64 -99 0 -69 63 -108 126 -78 71 34 83
129 21 167 -35 22 -50 23 -83 10z"/>
<path d="M1122 1934 c-15 -10 -22 -25 -22 -49 0 -61 75 -88 118 -42 27 29 28
47 1 81 -24 30 -63 34 -97 10z"/>
<path d="M401 1843 c-16 -55 -14 -77 10 -107 15 -19 30 -26 54 -26 28 0 40 8
71 45 39 48 64 58 64 24 0 -29 -18 -59 -35 -59 -21 0 -18 -17 4 -30 35 -18 50
-11 60 28 16 57 13 97 -10 126 -35 45 -71 34 -124 -36 -30 -42 -65 -51 -65
-18 0 12 12 32 26 45 30 28 24 45 -16 45 -25 0 -31 -5 -39 -37z"/>
<path d="M1976 1616 c-15 -24 -15 -25 12 -28 l27 -3 22 -215 c12 -118 22 -233
22 -255 l1 -40 -165 -59 c-91 -32 -164 -60 -162 -62 2 -2 88 20 192 49 l190
53 3 34 c5 66 -55 532 -69 541 -25 16 -57 9 -73 -15z"/>
<path d="M960 1621 c-25 -7 -25 -8 -53 -281 -15 -150 -24 -276 -20 -280 11 -9
374 -112 379 -107 2 2 -65 30 -150 62 -85 32 -159 61 -165 64 -7 5 -4 78 10
241 11 129 22 241 24 248 2 6 20 12 38 12 46 0 52 10 20 32 -29 19 -42 20 -83
9z"/>
<path d="M1498 1281 c-5 -52 -8 -134 -8 -183 0 -54 -4 -88 -10 -88 -6 0 -83
18 -172 40 -88 23 -162 39 -164 37 -2 -2 77 -32 176 -66 99 -35 180 -68 180
-73 0 -4 11 -1 24 7 13 9 95 40 182 70 88 29 155 54 149 54 -5 1 -75 -15 -155
-34 -80 -19 -153 -35 -162 -35 -15 0 -18 9 -19 48 -1 26 -4 108 -8 182 l-6
135 -7 -94z"/>
<path d="M1925 976 c-144 -43 -189 -59 -145 -52 14 3 88 12 165 22 77 9 144
20 148 25 12 10 -1 49 -16 48 -7 0 -75 -20 -152 -43z"/>
<path d="M897 991 c-6 -25 -7 -24 153 -46 164 -22 171 -18 35 21 -173 49 -181
50 -188 25z"/>
</g>
</svg>
