<svg id="svg" version="1.1" xmlns="http://www.w3.org/2000/svg" xmlns:xlink="http://www.w3.org/1999/xlink" width="400" height="279.8" viewBox="0, 0, 400,279.8"><g id="svgg"><path id="path0" d="M80.700 157.084 C 74.857 158.221,71.595 161.693,71.602 166.771 C 71.610 172.254,73.742 174.409,82.900 178.190 C 89.025 180.718,90.637 182.259,90.585 185.539 C 90.491 191.458,80.742 193.273,73.864 188.652 C 73.224 188.222,72.598 187.810,72.474 187.738 C 72.126 187.535,69.505 192.013,69.840 192.239 C 79.702 198.867,93.620 196.327,95.784 187.505 C 97.399 180.924,94.270 176.831,84.702 173.008 C 78.485 170.524,76.816 169.143,76.804 166.474 C 76.783 161.539,84.511 159.826,92.064 163.092 C 92.944 163.472,93.725 163.746,93.800 163.700 C 93.999 163.577,95.600 159.886,95.600 159.550 C 95.600 159.145,93.440 158.306,90.000 157.374 C 88.040 156.843,82.779 156.679,80.700 157.084 M242.300 156.930 C 232.711 158.461,227.055 167.010,227.832 178.800 C 228.725 192.358,239.944 199.370,252.747 194.371 C 255.264 193.388,255.151 193.618,254.279 191.264 C 253.360 188.783,253.463 188.863,252.075 189.557 C 243.491 193.849,235.465 189.932,233.517 180.500 C 230.888 167.763,239.360 158.511,250.152 162.333 C 251.223 162.713,252.221 163.041,252.369 163.062 C 252.582 163.092,254.184 159.357,254.198 158.799 C 254.202 158.632,252.008 157.836,250.300 157.385 C 248.720 156.967,243.814 156.688,242.300 156.930 M210.115 159.850 C 210.027 160.280,209.552 164.306,209.278 166.950 L 209.148 168.200 206.674 168.200 L 204.200 168.200 204.200 170.300 L 204.200 172.400 206.586 172.400 L 208.972 172.400 209.048 180.450 C 209.130 189.237,209.138 189.299,210.404 191.807 C 212.479 195.918,218.905 197.167,223.900 194.429 C 224.230 194.248,224.532 194.083,224.571 194.063 C 224.629 194.032,223.425 190.203,223.310 190.054 C 223.290 190.028,222.605 190.289,221.787 190.633 C 219.202 191.721,216.624 191.603,215.440 190.342 C 214.156 188.975,214.106 188.613,214.037 180.150 L 213.975 172.400 217.887 172.400 L 221.800 172.400 221.800 170.300 L 221.800 168.200 217.900 168.200 L 214.000 168.200 214.000 163.800 L 214.000 159.400 212.104 159.400 C 210.298 159.400,210.203 159.421,210.115 159.850 M313.195 163.800 L 312.717 168.200 310.259 168.200 L 307.800 168.200 307.800 170.300 L 307.800 172.400 310.200 172.400 L 312.600 172.400 312.603 179.950 C 312.608 190.799,313.390 193.285,317.356 195.064 C 320.194 196.337,325.542 195.909,327.761 194.231 L 328.221 193.882 327.685 192.391 C 327.390 191.571,327.074 190.701,326.982 190.458 L 326.816 190.016 325.358 190.630 C 322.524 191.824,319.953 191.569,318.748 189.974 C 317.689 188.572,317.600 187.782,317.600 179.764 L 317.600 172.400 321.500 172.400 L 325.400 172.400 325.400 170.300 L 325.400 168.200 321.500 168.200 L 317.600 168.200 317.600 163.800 L 317.600 159.400 315.637 159.400 L 313.674 159.400 313.195 163.800 M115.200 166.613 C 112.841 166.966,110.899 168.076,108.939 170.192 L 107.800 171.423 107.800 169.311 L 107.800 167.200 105.400 167.200 L 103.000 167.200 103.000 181.200 L 103.000 195.200 105.500 195.200 L 108.000 195.200 108.000 185.928 L 108.000 176.656 108.519 175.878 C 111.698 171.110,116.755 169.543,119.372 172.515 C 120.877 174.225,120.882 174.267,120.956 185.350 L 121.021 195.200 123.510 195.200 L 126.000 195.200 126.000 185.998 L 126.000 176.797 126.550 176.042 C 130.399 170.763,135.029 169.369,137.579 172.722 C 138.932 174.501,139.000 175.122,139.000 185.746 L 139.000 195.200 141.500 195.200 L 144.000 195.200 144.000 185.318 C 144.000 177.386,143.941 175.126,143.701 173.868 C 142.098 165.452,132.305 163.739,126.401 170.840 L 125.300 172.164 124.768 171.123 C 123.264 168.184,119.622 166.105,116.536 166.424 C 116.406 166.438,115.805 166.523,115.200 166.613 M161.012 166.731 C 147.364 169.414,146.487 192.127,159.900 195.500 C 164.077 196.551,167.985 195.490,170.735 192.558 C 171.743 191.485,171.774 191.469,171.896 191.953 C 172.356 193.790,174.530 195.307,176.883 195.436 L 178.067 195.500 178.518 193.900 C 179.086 191.887,179.099 191.600,178.624 191.600 C 177.885 191.600,176.781 190.978,176.395 190.345 C 176.016 189.724,176.001 189.282,176.001 178.450 L 176.000 167.200 173.700 167.200 L 171.400 167.200 171.400 168.224 L 171.400 169.249 170.950 168.919 C 168.126 166.846,164.493 166.046,161.012 166.731 M197.500 166.616 C 194.906 167.006,192.393 168.840,190.940 171.404 L 190.206 172.700 190.203 169.950 L 190.200 167.200 187.800 167.200 L 185.400 167.200 185.400 181.200 L 185.400 195.200 187.888 195.200 L 190.375 195.200 190.449 187.250 C 190.528 178.602,190.576 178.185,191.760 175.824 C 193.361 172.631,196.972 170.932,200.214 171.845 C 200.720 171.987,200.736 171.958,201.398 169.645 C 201.768 168.355,202.106 167.196,202.149 167.069 C 202.300 166.629,199.333 166.340,197.500 166.616 M269.100 166.512 C 268.880 166.563,268.205 166.701,267.600 166.820 C 261.443 168.032,257.424 174.569,257.861 182.662 C 258.354 191.784,264.137 196.674,273.400 195.800 C 276.444 195.513,280.800 194.321,280.800 193.775 C 280.800 193.625,279.775 189.794,279.696 189.651 C 279.681 189.625,278.911 189.880,277.985 190.219 C 270.227 193.057,264.033 190.533,263.094 184.150 L 262.955 183.200 272.777 183.200 L 282.600 183.200 282.599 180.250 C 282.595 172.962,279.635 168.353,274.027 166.906 C 272.743 166.574,269.838 166.342,269.100 166.512 M301.116 166.615 C 298.435 167.021,295.854 168.916,294.455 171.506 L 293.811 172.700 293.805 169.950 L 293.800 167.200 291.400 167.200 L 289.000 167.200 289.000 181.200 L 289.000 195.200 291.500 195.200 L 294.000 195.200 294.000 187.818 C 294.000 179.573,294.128 178.347,295.225 176.048 C 296.873 172.594,300.586 170.813,303.900 171.887 C 304.262 172.005,304.363 171.796,304.973 169.665 C 305.343 168.371,305.687 167.205,305.737 167.075 C 305.908 166.631,302.951 166.337,301.116 166.615 M167.640 171.500 C 168.384 171.752,169.400 172.196,169.897 172.487 L 170.800 173.017 170.800 180.568 L 170.800 188.119 170.050 188.839 C 163.145 195.470,153.625 188.579,155.714 178.462 C 156.967 172.398,161.857 169.544,167.640 171.500 M273.045 171.244 C 275.617 171.867,277.566 174.579,277.935 178.050 L 278.057 179.200 270.454 179.200 L 262.852 179.200 263.024 178.280 C 264.125 172.385,267.620 169.931,273.045 171.244 " stroke="none" fill="#f40c5c" fill-rule="evenodd"></path><path id="path1" d="M233.250 68.455 L 231.000 68.866 231.000 81.319 C 231.000 96.881,231.401 95.874,227.065 91.213 L 224.100 88.027 222.600 89.568 C 221.775 90.415,220.391 91.849,219.525 92.754 C 216.847 95.554,217.000 96.165,217.000 82.672 C 217.000 72.196,216.980 71.579,216.650 71.676 C 216.457 71.733,214.590 72.106,212.500 72.505 C 210.410 72.904,207.395 73.483,205.800 73.792 C 204.205 74.102,202.476 74.415,201.959 74.488 C 201.251 74.589,200.891 74.772,200.509 75.226 L 200.000 75.831 200.000 109.935 L 200.000 144.040 200.621 144.620 C 201.462 145.405,201.364 145.419,218.879 142.003 C 222.668 141.263,230.493 139.773,233.554 139.207 C 235.233 138.897,236.747 138.527,236.917 138.386 C 237.838 137.621,237.800 139.126,237.800 103.504 C 237.800 66.801,237.872 68.958,236.626 68.313 C 235.911 67.944,236.092 67.936,233.250 68.455 M157.783 68.786 L 157.197 69.373 157.248 103.504 L 157.300 137.635 157.859 138.116 C 158.167 138.381,158.617 138.633,158.859 138.677 C 162.424 139.326,177.937 142.271,186.827 143.987 C 193.648 145.303,193.771 145.308,194.574 144.288 L 195.000 143.746 195.000 109.947 L 195.000 76.147 194.583 75.473 C 194.354 75.103,193.972 74.756,193.733 74.703 C 193.495 74.650,189.475 73.884,184.800 73.001 C 180.125 72.117,175.175 71.176,173.800 70.908 C 172.425 70.641,169.590 70.099,167.500 69.704 C 165.410 69.309,162.810 68.809,161.722 68.593 C 158.988 68.050,158.495 68.074,157.783 68.786 M148.096 79.574 C 147.104 80.025,146.180 80.927,145.679 81.936 C 145.313 82.675,145.298 83.703,145.247 112.800 C 145.189 145.359,145.157 144.362,146.299 145.858 C 147.711 147.707,146.712 147.610,163.651 147.551 L 178.500 147.500 174.000 146.642 C 171.525 146.170,168.150 145.519,166.500 145.195 C 164.850 144.870,162.150 144.372,160.500 144.087 C 155.973 143.305,154.333 142.354,152.933 139.700 L 152.300 138.500 152.247 108.850 L 152.194 79.200 150.547 79.204 C 149.386 79.207,148.662 79.317,148.096 79.574 M242.754 108.850 L 242.700 138.500 242.067 139.700 C 240.956 141.806,238.898 143.341,236.700 143.705 C 235.498 143.903,220.367 146.768,218.300 147.188 L 216.500 147.554 231.358 147.577 C 247.812 147.602,246.800 147.678,248.259 146.321 C 249.699 144.984,249.591 147.646,249.596 113.444 C 249.600 79.833,249.688 82.198,248.377 80.704 C 247.391 79.582,246.418 79.210,244.454 79.204 L 242.808 79.200 242.754 108.850 " stroke="none" fill="#1444ac" fill-rule="evenodd"></path><path id="path2" d="" stroke="none" fill="#f82884" fill-rule="evenodd"></path><path id="path3" d="" stroke="none" fill="#502884" fill-rule="evenodd"></path><path id="path4" d="" stroke="none" fill="#1428b0" fill-rule="evenodd"></path></g></svg>